# xmcd
#
# Track frame offsets: 
#        150
#        16090
#        29347
#        45432
#        60032
#        75122
#        89937
#        107092
#        119890
#        133152
#
# Disc length: 1974 seconds
#
# Revision: 4
# Processed by: cddbd v1.5.2PL0 Copyright (c) Steve Scherf et al.
# Submitted via: ExactAudioCopyFreeDBPlugin 1.0
#
DISCID=7807b40a
DTITLE=Billy Dean - Young Man
DYEAR=1990
DGENRE=Country
TTITLE0=Young Man
TTITLE1=I Won't Let You Walk Away
TTITLE2=Only Here for a Little While
TTITLE3=Lowdown Lonely
TTITLE4=Somewhere in My Broken Heart
TTITLE5=How Can I Hold You
TTITLE6=She's Taken
TTITLE7=What Have You Got Against Love
TTITLE8=Tear the Wall Down
TTITLE9=Brotherly Love
EXTD=
EXTT0=
EXTT1=
EXTT2=
EXTT3=
EXTT4=
EXTT5=
EXTT6=
EXTT7=
EXTT8=
EXTT9=
PLAYORDER=
